<svg version="1.1" id="Layer_1" xmlns="http://www.w3.org/2000/svg" xmlns:xlink="http://www.w3.org/1999/xlink" x="0px" y="0px"
	 width="100%" viewBox="0 0 1905 1463" enable-background="new 0 0 1905 1463" xml:space="preserve" style="background: transparent;">
<path fill="#64748b" opacity="1.000000" stroke="none" 
	d="
M1278.000000,1464.000000 
	C852.000122,1464.000000 426.500244,1464.000000 1.000285,1464.000000 
	C1.000190,976.333618 1.000190,488.667206 1.000095,1.000612 
	C635.999573,1.000408 1270.999146,1.000408 1905.999023,1.000204 
	C1905.999268,488.666046 1905.999268,976.332092 1905.999634,1463.999023 
	C1696.833374,1464.000000 1487.666626,1464.000000 1278.000000,1464.000000 
M938.986023,339.984253 
	C938.986023,339.984253 938.954102,339.966125 938.246277,339.997498 
	C936.353638,341.735870 934.460999,343.474213 932.439270,345.227783 
	C932.439270,345.227783 932.380127,345.343536 931.833496,345.738342 
	C928.160767,349.973694 924.480164,354.202332 920.816895,358.445862 
	C914.054443,366.279419 907.330444,374.146393 900.537476,381.953369 
	C893.635376,389.885773 886.615723,397.716339 879.748718,405.678741 
	C874.422180,411.854950 869.471802,418.368286 863.955933,424.365417 
	C856.908142,432.028229 852.077393,440.801819 848.152649,450.406342 
	C842.578247,464.048004 842.957825,478.162262 842.976868,492.400848 
	C843.069397,561.564209 843.026001,630.727722 843.024719,699.891174 
	C843.024597,707.827271 839.827209,711.003967 831.848206,711.032166 
	C827.515137,711.047485 823.181946,711.036560 818.848816,711.035767 
	C810.141663,711.034241 807.979309,708.910095 807.978271,700.321411 
	C807.973938,664.092651 807.973083,627.863892 807.973633,591.635132 
	C807.974304,543.304016 807.888672,494.972626 808.062988,446.642151 
	C808.093567,438.169098 809.944519,430.132477 815.962646,423.306885 
	C822.885437,415.455322 829.070740,406.957581 835.688354,398.831726 
	C842.260071,390.762299 849.308350,383.057404 855.515381,374.721832 
	C860.601868,367.890991 864.912292,360.806274 864.219482,351.236420 
	C863.437378,340.432312 850.585388,332.175201 843.036560,333.152039 
	C835.456482,334.132935 828.814209,337.431976 824.008484,343.626556 
	C817.711182,351.743744 811.664612,360.056793 805.303467,368.122589 
	C798.116760,377.235260 790.942322,386.377686 783.319519,395.120941 
	C774.933289,404.739868 770.336853,416.350342 766.272583,427.975922 
	C763.951477,434.615356 764.130188,442.320251 764.119812,449.546783 
	C763.989258,540.209045 764.043640,630.871582 763.999573,721.534058 
	C763.996277,728.408569 766.491150,734.399170 770.391602,739.713684 
	C777.662292,749.620422 788.356750,753.429260 800.003540,753.837158 
	C815.983154,754.396851 832.015259,754.420471 847.987976,753.768799 
	C855.053406,753.480530 862.594666,752.184082 868.928406,749.223877 
	C882.934021,742.677917 886.831970,729.366211 886.878601,715.364136 
	C887.143005,635.868713 886.923096,556.371826 887.066711,476.875793 
	C887.080933,468.979126 888.468201,461.167816 894.369446,454.933228 
	C899.592468,449.415314 904.421997,443.526642 909.589966,437.954468 
	C916.435852,430.573242 923.543213,423.433289 930.339417,416.007721 
	C934.112000,411.885712 937.480225,407.393494 941.485413,402.843964 
	C941.680420,402.574738 941.875427,402.305511 942.689819,401.793762 
	C946.251648,397.814667 949.813416,393.835602 953.683594,389.678375 
	C953.683594,389.678375 953.853760,389.365570 954.383118,389.057312 
	C955.529785,387.388885 956.676514,385.720490 958.093201,383.378265 
	C962.501038,378.009430 968.427734,376.542297 975.938843,376.920929 
	C995.368530,377.277039 1014.799316,377.585388 1034.227051,378.026398 
	C1038.503906,378.123474 1042.862305,378.250275 1047.024780,379.120453 
	C1062.440674,382.343109 1075.622192,390.049347 1087.081055,400.604340 
	C1094.482056,407.421600 1099.786133,415.762360 1103.931274,425.061768 
	C1108.351440,434.978394 1110.623169,445.300507 1110.797729,455.895264 
	C1111.019409,469.340057 1105.956787,481.730042 1100.324341,494.254333 
	C1097.224976,498.503571 1094.125488,502.752838 1090.473755,507.211792 
	C1089.981689,507.811127 1089.489624,508.410492 1088.294922,509.025513 
	C1085.538452,511.686432 1082.781860,514.347351 1079.996460,516.996582 
	C1079.996460,516.996582 1080.008057,517.026672 1079.281494,517.050232 
	C1077.873291,517.858765 1076.412964,518.589172 1075.065063,519.488098 
	C1063.445435,527.237183 1050.429443,531.084167 1036.710327,531.892029 
	C1021.466614,532.789612 1006.163696,532.668396 990.887329,533.025085 
	C974.138184,533.416077 959.970520,540.085022 949.891541,553.112976 
	C940.202332,565.637207 938.783508,580.763245 942.297729,595.940247 
	C944.088257,603.673340 948.159973,610.420410 953.636780,616.674133 
	C962.561279,626.864502 970.193787,638.177307 978.556763,648.871582 
	C984.226318,656.121521 990.274902,663.073792 996.043579,670.247925 
	C1004.170532,680.354736 1012.141235,690.587341 1020.279297,700.685120 
	C1028.109741,710.401245 1036.251709,719.870972 1043.925659,729.707397 
	C1054.907959,743.784546 1068.911377,753.707214 1086.536621,755.662109 
	C1112.315308,758.521179 1134.259766,750.404602 1149.044189,727.664673 
	C1163.680420,705.152771 1163.334229,673.999939 1144.577148,651.079529 
	C1131.876709,635.559875 1119.105957,620.084290 1106.898682,604.180603 
	C1102.006836,597.807495 1096.517334,593.586304 1088.562622,592.252502 
	C1077.532715,590.403137 1065.117798,598.849976 1063.049927,611.660583 
	C1063.012085,612.102051 1062.974243,612.543457 1062.404297,613.207886 
	C1062.578003,613.812622 1062.751587,614.417358 1062.989258,615.896912 
	C1064.314087,620.707275 1064.403442,626.432129 1067.172852,630.173218 
	C1080.819580,648.607910 1095.160522,666.529419 1109.294922,684.602112 
	C1112.673096,688.921631 1113.121216,693.818970 1111.079468,698.494324 
	C1108.566284,704.249573 1104.514771,708.510193 1097.482544,709.108826 
	C1091.000122,709.660645 1086.864624,706.238159 1083.189941,701.810303 
	C1073.943970,690.668945 1064.771484,679.466003 1055.627441,668.240662 
	C1045.739014,656.101685 1035.994507,643.844971 1026.039551,631.761292 
	C1018.601318,622.732483 1010.899231,613.921631 1003.370544,604.966675 
	C998.611450,599.305908 993.766846,593.697693 989.379211,587.756775 
	C988.216431,586.182373 988.135925,583.377441 988.521362,581.317688 
	C988.661743,580.567261 991.599060,579.962036 993.269226,579.939209 
	C1002.100525,579.818604 1010.940063,579.711365 1019.766663,579.958740 
	C1039.525146,580.512451 1058.916016,578.493835 1077.270508,570.836609 
	C1089.390015,565.780518 1101.770874,560.875916 1111.682373,550.915894 
	C1120.692139,543.808044 1128.193359,535.519958 1134.876953,526.028076 
	C1143.956055,513.134155 1150.573975,499.601929 1154.530884,484.307434 
	C1159.631592,464.592041 1158.796631,445.014435 1154.562012,425.601410 
	C1150.686890,407.835571 1142.079712,391.918732 1130.911133,377.602356 
	C1117.590332,360.527191 1100.449951,348.334534 1080.474487,340.128510 
	C1065.901001,334.141602 1050.695679,330.925751 1034.929932,331.046021 
	C1011.651367,331.223633 988.375671,331.893372 965.097595,331.962860 
	C957.201233,331.986420 949.767700,332.916687 942.264343,337.014801 
	C941.165955,337.993744 940.067566,338.972687 938.986023,339.984253 
z"/>
<path fill="#1F668A" opacity="1.000000" stroke="none" 
	d="
M941.030762,403.068176 
	C937.480225,407.393494 934.112000,411.885712 930.339417,416.007721 
	C923.543213,423.433289 916.435852,430.573242 909.589966,437.954468 
	C904.421997,443.526642 899.592468,449.415314 894.369446,454.933228 
	C888.468201,461.167816 887.080933,468.979126 887.066711,476.875793 
	C886.923096,556.371826 887.143005,635.868713 886.878601,715.364136 
	C886.831970,729.366211 882.934021,742.677917 868.928406,749.223877 
	C862.594666,752.184082 855.053406,753.480530 847.987976,753.768799 
	C832.015259,754.420471 815.983154,754.396851 800.003540,753.837158 
	C788.356750,753.429260 777.662292,749.620422 770.391602,739.713684 
	C766.491150,734.399170 763.996277,728.408569 763.999573,721.534058 
	C764.043640,630.871582 763.989258,540.209045 764.119812,449.546783 
	C764.130188,442.320251 763.951477,434.615356 766.272583,427.975922 
	C770.336853,416.350342 774.933289,404.739868 783.319519,395.120941 
	C790.942322,386.377686 798.116760,377.235260 805.303467,368.122589 
	C811.664612,360.056793 817.711182,351.743744 824.008484,343.626556 
	C828.814209,337.431976 835.456482,334.132935 843.036560,333.152039 
	C850.585388,332.175201 863.437378,340.432312 864.219482,351.236420 
	C864.912292,360.806274 860.601868,367.890991 855.515381,374.721832 
	C849.308350,383.057404 842.260071,390.762299 835.688354,398.831726 
	C829.070740,406.957581 822.885437,415.455322 815.962646,423.306885 
	C809.944519,430.132477 808.093567,438.169098 808.062988,446.642151 
	C807.888672,494.972626 807.974304,543.304016 807.973633,591.635132 
	C807.973083,627.863892 807.973938,664.092651 807.978271,700.321411 
	C807.979309,708.910095 810.141663,711.034241 818.848816,711.035767 
	C823.181946,711.036560 827.515137,711.047485 831.848206,711.032166 
	C839.827209,711.003967 843.024597,707.827271 843.024719,699.891174 
	C843.026001,630.727722 843.069397,561.564209 842.976868,492.400848 
	C842.957825,478.162262 842.578247,464.048004 848.152649,450.406342 
	C852.077393,440.801819 856.908142,432.028229 863.955933,424.365417 
	C869.471802,418.368286 874.422180,411.854950 879.748718,405.678741 
	C886.615723,397.716339 893.635376,389.885773 900.537476,381.953369 
	C907.330444,374.146393 914.054443,366.279419 920.816895,358.445862 
	C924.480164,354.202332 928.160767,349.973694 932.175720,345.930237 
	C931.629639,348.012085 931.099121,350.209076 929.788269,351.736359 
	C925.219604,357.059448 921.409851,362.341339 923.916260,370.049957 
	C924.692993,372.438751 924.203796,375.346832 923.879944,377.965942 
	C922.834351,386.421387 921.543762,394.846619 920.504089,403.302704 
	C920.386963,404.255157 920.987244,405.867889 921.733582,406.257843 
	C925.479858,408.215057 925.016541,410.656799 923.147522,413.632019 
	C922.615723,414.478668 922.661194,415.687927 922.441895,416.730896 
	C922.881226,417.107422 923.320557,417.483978 923.759888,417.860535 
	C926.471191,415.277374 929.080627,412.575195 931.922119,410.144165 
	C934.840210,407.647491 937.985107,405.415833 941.030762,403.068176 
z"/>
<path fill="#57A5AC" opacity="1.000000" stroke="none" 
	d="
M1110.987305,550.805359 
	C1101.770874,560.875916 1089.390015,565.780518 1077.270508,570.836609 
	C1058.916016,578.493835 1039.525146,580.512451 1019.766663,579.958740 
	C1010.940063,579.711365 1002.100525,579.818604 993.269226,579.939209 
	C991.599060,579.962036 988.661743,580.567261 988.521362,581.317688 
	C988.135925,583.377441 988.216431,586.182373 989.379211,587.756775 
	C993.766846,593.697693 998.611450,599.305908 1003.370544,604.966675 
	C1010.899231,613.921631 1018.601318,622.732483 1026.039551,631.761292 
	C1035.994507,643.844971 1045.739014,656.101685 1055.627441,668.240662 
	C1064.771484,679.466003 1073.943970,690.668945 1083.189941,701.810303 
	C1086.864624,706.238159 1091.000122,709.660645 1097.482544,709.108826 
	C1104.514771,708.510193 1108.566284,704.249573 1111.079468,698.494324 
	C1113.121216,693.818970 1112.673096,688.921631 1109.294922,684.602112 
	C1095.160522,666.529419 1080.819580,648.607910 1067.172852,630.173218 
	C1064.403442,626.432129 1064.314087,620.707275 1063.090576,615.274902 
	C1063.106689,614.096924 1063.021484,613.540894 1062.936279,612.984924 
	C1062.974243,612.543457 1063.012085,612.102051 1063.418213,611.336670 
	C1064.186157,611.007629 1064.585815,611.002441 1065.156494,611.361877 
	C1066.353394,616.715637 1066.285645,622.317566 1068.658203,626.552368 
	C1072.350464,633.142761 1077.614990,638.872437 1082.366699,644.844727 
	C1092.079590,657.052734 1102.002197,669.095032 1111.630371,681.368713 
	C1118.275513,689.839661 1116.511719,701.290833 1107.817383,708.468140 
	C1101.196777,713.933533 1088.041138,712.542603 1082.094604,705.489807 
	C1074.630859,696.637451 1067.410522,687.580078 1060.053101,678.637512 
	C1048.346680,664.408997 1036.615356,650.200928 1024.891235,635.986816 
	C1019.930603,629.972717 1014.961731,623.965454 1009.820068,617.676025 
	C1004.157410,611.720642 998.744141,605.970093 993.111328,600.443298 
	C992.203979,599.552979 990.318115,599.659973 988.884521,599.305969 
	C989.227295,600.962952 989.290894,602.752991 989.997559,604.236633 
	C990.609009,605.520569 992.132751,606.342468 992.911804,607.583008 
	C993.539490,608.582458 994.291687,610.631287 993.904297,610.968445 
	C989.416443,614.873413 990.115540,619.993774 990.808899,624.804993 
	C991.696045,630.961548 987.205383,636.616333 989.738831,642.941772 
	C990.615051,645.129517 989.263977,647.386963 986.118286,646.237244 
	C983.211487,645.174683 983.054077,646.915771 982.733765,648.839294 
	C975.249939,639.638916 968.021484,630.602600 961.002563,621.406311 
	C960.459229,620.694458 960.953247,618.097046 961.702881,617.669556 
	C966.637268,614.855957 966.727905,610.056519 966.897644,605.460693 
	C967.155396,598.480530 967.047668,591.483154 966.956055,584.494934 
	C966.890015,579.461487 966.987976,574.677612 970.337769,570.302734 
	C971.687012,568.540527 971.866333,565.570435 971.865295,563.150391 
	C971.863037,557.861389 971.404480,552.572510 971.088257,546.425964 
	C968.322449,547.500854 965.116394,548.746887 961.910339,549.992859 
	C961.565674,549.743652 961.221069,549.494446 960.876404,549.245239 
	C962.102600,547.658936 963.072449,545.733337 964.615906,544.566895 
	C966.849548,542.878967 969.368042,541.375061 971.995178,540.437866 
	C979.108398,537.900330 986.079956,534.356323 994.102051,536.380615 
	C993.299377,541.017700 992.264832,545.185608 994.328979,549.641235 
	C995.071411,551.243774 993.643127,553.792725 993.383240,555.931396 
	C992.867126,560.178711 992.057190,564.457642 992.225464,568.689453 
	C992.298096,570.514709 994.139221,573.219055 995.806580,573.844116 
	C999.945740,575.395569 1004.413940,576.579407 1008.810486,576.824219 
	C1017.097351,577.285645 1025.429077,577.090393 1033.736694,576.911560 
	C1035.534668,576.872864 1037.309204,575.750488 1039.554932,575.126587 
	C1048.692505,574.123657 1057.909058,574.641968 1065.932373,571.795898 
	C1081.610718,566.234497 1097.189819,559.827698 1109.621094,547.981934 
	C1110.515381,547.129822 1111.902344,546.794800 1112.956299,546.517700 
	C1112.230713,548.145752 1111.609009,549.475586 1110.987305,550.805359 
M987.786621,593.688721 
	C988.137268,593.487610 988.487854,593.286499 988.838501,593.085388 
	C988.539673,592.832275 988.240906,592.579102 987.942078,592.325928 
	C987.759155,592.727783 987.576233,593.129639 987.786621,593.688721 
z"/>
<path fill="#4F97A2" opacity="1.000000" stroke="none" 
	d="
M1111.334839,550.860596 
	C1111.609009,549.475586 1112.230713,548.145752 1113.216064,546.294067 
	C1117.404053,541.870300 1121.228394,537.968445 1125.316284,533.938293 
	C1126.034546,533.203125 1126.489258,532.596313 1127.212891,531.794556 
	C1128.361694,530.115173 1129.241577,528.630615 1130.413574,527.019592 
	C1131.454590,525.930176 1132.203735,524.967285 1133.091309,523.686890 
	C1136.707764,517.926453 1140.978149,512.825439 1143.503662,506.971680 
	C1149.361938,493.393372 1154.152222,479.392944 1154.729614,464.359253 
	C1155.312988,449.162994 1154.369873,434.128632 1149.505493,419.584961 
	C1144.194824,403.707520 1136.630615,389.185272 1125.589844,376.314819 
	C1113.547607,362.276917 1099.296143,351.587311 1082.461304,344.257721 
	C1068.354370,338.115723 1053.921631,333.213837 1037.890991,334.576935 
	C1036.098022,333.875732 1034.549316,333.128174 1032.997070,333.121124 
	C1024.388550,333.081970 1015.779236,333.222839 1006.699707,333.255310 
	C993.183289,333.791595 980.137390,334.374664 967.119934,334.956482 
	C967.119934,341.605377 967.083557,347.189423 967.144287,352.772430 
	C967.160400,354.255127 967.022156,356.010895 967.729004,357.168457 
	C971.089600,362.671967 967.105469,366.067108 964.455322,369.924377 
	C963.426819,371.421265 962.616760,373.068298 961.707275,374.646973 
	C963.690552,374.666046 965.743835,375.021393 967.640991,374.626556 
	C970.610901,374.008514 973.273438,373.596680 975.021423,376.788574 
	C968.427734,376.542297 962.501038,378.009430 957.642334,383.813110 
	C956.078918,385.953796 954.966309,387.659668 953.853760,389.365570 
	C953.853760,389.365570 953.683594,389.678375 953.193726,389.694702 
	C947.818176,392.662323 943.318726,395.946869 942.070496,402.036316 
	C941.875427,402.305511 941.680420,402.574738 941.258057,402.956055 
	C937.985107,405.415833 934.840210,407.647491 931.922119,410.144165 
	C929.080627,412.575195 926.471191,415.277374 923.759888,417.860535 
	C923.320557,417.483978 922.881226,417.107422 922.441895,416.730896 
	C922.661194,415.687927 922.615723,414.478668 923.147522,413.632019 
	C925.016541,410.656799 925.479858,408.215057 921.733582,406.257843 
	C920.987244,405.867889 920.386963,404.255157 920.504089,403.302704 
	C921.543762,394.846619 922.834351,386.421387 923.879944,377.965942 
	C924.203796,375.346832 924.692993,372.438751 923.916260,370.049957 
	C921.409851,362.341339 925.219604,357.059448 929.788269,351.736359 
	C931.099121,350.209076 931.629639,348.012085 932.449036,345.732849 
	C932.380127,345.343536 932.439270,345.227783 932.848999,345.314301 
	C935.157166,343.589264 937.055664,341.777710 938.954102,339.966125 
	C938.954102,339.966125 938.986023,339.984253 939.326965,339.959656 
	C940.752380,338.960785 941.836853,337.986542 942.921265,337.012329 
	C949.767700,332.916687 957.201233,331.986420 965.097595,331.962860 
	C988.375671,331.893372 1011.651367,331.223633 1034.929932,331.046021 
	C1050.695679,330.925751 1065.901001,334.141602 1080.474487,340.128510 
	C1100.449951,348.334534 1117.590332,360.527191 1130.911133,377.602356 
	C1142.079712,391.918732 1150.686890,407.835571 1154.562012,425.601410 
	C1158.796631,445.014435 1159.631592,464.592041 1154.530884,484.307434 
	C1150.573975,499.601929 1143.956055,513.134155 1134.876953,526.028076 
	C1128.193359,535.519958 1120.692139,543.808044 1111.334839,550.860596 
z"/>
<path fill="#4F97A2" opacity="1.000000" stroke="none" 
	d="
M1064.985596,610.997314 
	C1064.585815,611.002441 1064.186157,611.007629 1063.486572,611.011353 
	C1065.117798,598.849976 1077.532715,590.403137 1088.562622,592.252502 
	C1096.517334,593.586304 1102.006836,597.807495 1106.898682,604.180603 
	C1119.105957,620.084290 1131.876709,635.559875 1144.577148,651.079529 
	C1163.334229,673.999939 1163.680420,705.152771 1149.044189,727.664673 
	C1134.259766,750.404602 1112.315308,758.521179 1086.536621,755.662109 
	C1068.911377,753.707214 1054.907959,743.784546 1043.925659,729.707397 
	C1036.251709,719.870972 1028.109741,710.401245 1020.279297,700.685120 
	C1012.141235,690.587341 1004.170532,680.354736 996.043579,670.247925 
	C990.274902,663.073792 984.226318,656.121521 978.556763,648.871582 
	C970.193787,638.177307 962.561279,626.864502 953.636780,616.674133 
	C948.159973,610.420410 944.088257,603.673340 942.297729,595.940247 
	C938.783508,580.763245 940.202332,565.637207 949.891541,553.112976 
	C959.970520,540.085022 974.138184,533.416077 990.887329,533.025085 
	C1006.163696,532.668396 1021.466614,532.789612 1036.710327,531.892029 
	C1050.429443,531.084167 1063.445435,527.237183 1075.065063,519.488098 
	C1076.412964,518.589172 1077.873291,517.858765 1079.590332,517.367737 
	C1078.308350,519.468384 1076.717651,521.251465 1074.840332,523.247559 
	C1064.895142,528.516479 1054.907837,532.642700 1043.637207,534.186340 
	C1041.514893,534.455872 1039.785034,534.788452 1037.583862,535.129517 
	C1029.055908,535.399536 1020.999329,535.661072 1012.480469,535.905273 
	C1006.029968,535.943298 1000.041748,535.998718 994.053589,536.054077 
	C986.079956,534.356323 979.108398,537.900330 971.995178,540.437866 
	C969.368042,541.375061 966.849548,542.878967 964.615906,544.566895 
	C963.072449,545.733337 962.102600,547.658936 960.876404,549.245239 
	C961.221069,549.494446 961.565674,549.743652 961.910339,549.992859 
	C965.116394,548.746887 968.322449,547.500854 971.088257,546.425964 
	C971.404480,552.572510 971.863037,557.861389 971.865295,563.150391 
	C971.866333,565.570435 971.687012,568.540527 970.337769,570.302734 
	C966.987976,574.677612 966.890015,579.461487 966.956055,584.494934 
	C967.047668,591.483154 967.155396,598.480530 966.897644,605.460693 
	C966.727905,610.056519 966.637268,614.855957 961.702881,617.669556 
	C960.953247,618.097046 960.459229,620.694458 961.002563,621.406311 
	C968.021484,630.602600 975.249939,639.638916 983.007690,649.038086 
	C984.788879,650.918579 985.958862,652.499878 987.192017,654.030273 
	C992.055847,660.066467 996.939636,666.086670 1001.844604,672.109253 
	C1001.873169,672.105652 1001.878418,672.162292 1001.970215,672.488892 
	C1003.617493,674.633179 1005.172974,676.450806 1006.831299,678.594116 
	C1009.851440,682.755005 1012.690796,686.652527 1015.701050,690.413330 
	C1023.686401,700.389526 1031.534790,710.487305 1039.843628,720.189026 
	C1046.208740,727.621155 1052.290283,735.781555 1060.101196,741.381958 
	C1073.556152,751.029114 1088.568237,756.152832 1106.014893,752.553772 
	C1121.441528,749.371338 1133.546387,741.751526 1143.638184,730.226562 
	C1151.145630,721.652832 1154.435181,711.045105 1155.904541,700.200928 
	C1156.880127,692.999451 1156.169678,685.297485 1154.763428,678.103149 
	C1152.020630,664.070679 1142.467163,653.761108 1133.793091,643.048401 
	C1127.106934,634.790649 1120.869507,626.166199 1114.094604,617.984558 
	C1108.330811,611.023987 1102.084839,604.462769 1095.861938,597.449158 
	C1087.698853,592.181030 1078.562012,593.137207 1073.579346,599.570190 
	C1070.483398,603.459900 1067.734497,607.228577 1064.985596,610.997314 
z"/>
<path fill="#57A5AC" opacity="1.000000" stroke="none" 
	d="
M975.480103,376.854736 
	C973.273438,373.596680 970.610901,374.008514 967.640991,374.626556 
	C965.743835,375.021393 963.690552,374.666046 961.707275,374.646973 
	C962.616760,373.068298 963.426819,371.421265 964.455322,369.924377 
	C967.105469,366.067108 971.089600,362.671967 967.729004,357.168457 
	C967.022156,356.010895 967.160400,354.255127 967.144287,352.772430 
	C967.083557,347.189423 967.119934,341.605377 967.119934,334.956482 
	C980.137390,334.374664 993.183289,333.791595 1006.446045,333.519470 
	C1003.524292,334.489777 1000.385681,335.149078 997.606689,335.732819 
	C997.068604,348.312592 996.542053,360.625122 995.995239,373.409973 
	C1008.859863,376.061554 1021.927551,376.206390 1035.399536,375.871277 
	C1036.502930,375.884460 1037.238647,375.890930 1038.392334,375.929108 
	C1040.205933,375.964935 1041.601440,375.969086 1043.423584,375.987274 
	C1049.560913,377.584015 1055.460693,378.685181 1060.947266,380.838776 
	C1078.039795,387.548035 1091.899780,398.118256 1101.638428,414.182983 
	C1113.622070,433.950989 1116.718750,454.770447 1110.582642,476.810242 
	C1108.901611,482.848389 1105.099243,488.296021 1101.938721,494.005859 
	C1101.385864,493.994263 1101.164673,493.991455 1100.943604,493.988617 
	C1105.956787,481.730042 1111.019409,469.340057 1110.797729,455.895264 
	C1110.623169,445.300507 1108.351440,434.978394 1103.931274,425.061768 
	C1099.786133,415.762360 1094.482056,407.421600 1087.081055,400.604340 
	C1075.622192,390.049347 1062.440674,382.343109 1047.024780,379.120453 
	C1042.862305,378.250275 1038.503906,378.123474 1034.227051,378.026398 
	C1014.799316,377.585388 995.368530,377.277039 975.480103,376.854736 
z"/>
<path fill="#66BBBD" opacity="1.000000" stroke="none" 
	d="
M1075.126953,523.034607 
	C1076.717651,521.251465 1078.308350,519.468384 1079.953613,517.355957 
	C1080.008057,517.026672 1079.996460,516.996582 1080.374146,516.998291 
	C1084.898193,515.779114 1088.175781,513.661621 1088.997559,509.009827 
	C1089.489624,508.410492 1089.981689,507.811127 1091.062500,507.080048 
	C1092.438110,506.665985 1093.225220,506.383698 1093.971802,506.449005 
	C1090.448975,515.435303 1083.218140,519.733093 1075.126953,523.034607 
z"/>
<path fill="#4F97A2" opacity="1.000000" stroke="none" 
	d="
M1094.012207,506.101440 
	C1093.225220,506.383698 1092.438110,506.665985 1091.338623,506.975220 
	C1094.125488,502.752838 1097.224976,498.503571 1100.634033,494.121460 
	C1101.164673,493.991455 1101.385864,493.994263 1101.882324,494.340881 
	C1102.102539,495.133423 1102.047363,495.582184 1101.712036,496.212219 
	C1099.953979,498.916138 1098.475830,501.438751 1096.730469,504.112854 
	C1095.646240,504.876740 1094.829224,505.489105 1094.012207,506.101440 
z"/>
<path fill="#1F668A" opacity="1.000000" stroke="none" 
	d="
M942.380127,401.915039 
	C943.318726,395.946869 947.818176,392.662323 953.039551,389.783783 
	C949.813416,393.835602 946.251648,397.814667 942.380127,401.915039 
z"/>
<path fill="#4F97A2" opacity="1.000000" stroke="none" 
	d="
M1088.646240,509.017639 
	C1088.175781,513.661621 1084.898193,515.779114 1080.388672,517.004150 
	C1082.781860,514.347351 1085.538452,511.686432 1088.646240,509.017639 
z"/>
<path fill="#1F668A" opacity="1.000000" stroke="none" 
	d="
M938.600220,339.981812 
	C937.055664,341.777710 935.157166,343.589264 932.913513,345.306702 
	C934.460999,343.474213 936.353638,341.735870 938.600220,339.981812 
z"/>
<path fill="#1F668A" opacity="1.000000" stroke="none" 
	d="
M954.118408,389.211426 
	C954.966309,387.659668 956.078918,385.953796 957.507324,384.149994 
	C956.676514,385.720490 955.529785,387.388885 954.118408,389.211426 
z"/>
<path fill="#1F668A" opacity="1.000000" stroke="none" 
	d="
M942.592773,337.013550 
	C941.836853,337.986542 940.752380,338.960785 939.318542,339.943329 
	C940.067566,338.972687 941.165955,337.993744 942.592773,337.013550 
z"/>
<path fill="#4F97A2" opacity="1.000000" stroke="none" 
	d="
M1062.670288,613.096436 
	C1063.021484,613.540894 1063.106689,614.096924 1063.058472,614.837524 
	C1062.751587,614.417358 1062.578003,613.812622 1062.670288,613.096436 
z"/>
<path fill="#71C8C7" opacity="1.000000" stroke="none" 
	d="
M1093.971802,506.449036 
	C1094.829224,505.489105 1095.646240,504.876740 1097.039062,503.982971 
	C1099.073975,501.144653 1100.533081,498.587799 1101.992188,496.030945 
	C1102.047363,495.582184 1102.102539,495.133423 1102.214111,494.349640 
	C1105.099243,488.296021 1108.901611,482.848389 1110.582642,476.810242 
	C1116.718750,454.770447 1113.622070,433.950989 1101.638428,414.182983 
	C1091.899780,398.118256 1078.039795,387.548035 1060.947266,380.838776 
	C1055.460693,378.685181 1049.560913,377.584015 1043.259521,375.707397 
	C1041.104004,375.574768 1039.539062,375.736115 1037.974243,375.897430 
	C1037.238647,375.890930 1036.502930,375.884460 1035.192139,375.591614 
	C1032.384644,374.548553 1030.152100,373.791809 1028.230347,373.140381 
	C1028.942749,371.065338 1029.898560,369.340210 1030.065186,367.541962 
	C1030.302856,364.978088 1029.780029,362.352081 1029.901367,359.767578 
	C1030.276123,351.786987 1030.802124,343.813477 1031.302246,335.277527 
	C1032.946167,335.180054 1035.539917,335.026215 1038.133545,334.872437 
	C1053.921631,333.213837 1068.354370,338.115723 1082.461304,344.257721 
	C1099.296143,351.587311 1113.547607,362.276917 1125.589844,376.314819 
	C1136.630615,389.185272 1144.194824,403.707520 1149.505493,419.584961 
	C1154.369873,434.128632 1155.312988,449.162994 1154.729614,464.359253 
	C1154.152222,479.392944 1149.361938,493.393372 1143.503662,506.971680 
	C1140.978149,512.825439 1136.707764,517.926453 1132.784180,523.785645 
	C1131.599365,525.183289 1130.860474,526.164673 1130.121582,527.146118 
	C1129.241577,528.630615 1128.361694,530.115173 1126.947266,531.917603 
	C1125.959595,532.845825 1125.506104,533.456177 1125.052734,534.066528 
	C1121.228394,537.968445 1117.404053,541.870300 1113.320068,545.995728 
	C1111.902344,546.794800 1110.515381,547.129822 1109.621094,547.981934 
	C1097.189819,559.827698 1081.610718,566.234497 1065.932373,571.795898 
	C1057.909058,574.641968 1048.692505,574.123657 1039.077881,575.094482 
	C1031.505249,575.025208 1024.866821,575.094727 1018.235596,574.909119 
	C1014.192261,574.795959 1011.582825,573.296387 1012.523621,568.375183 
	C1012.904175,566.384460 1012.043640,564.177490 1011.889221,562.058594 
	C1011.650757,558.786255 1010.330322,554.899536 1011.612183,552.351807 
	C1014.400208,546.810486 1013.332153,541.446167 1012.942810,535.922607 
	C1020.999329,535.661072 1029.055908,535.399536 1037.890381,535.282959 
	C1040.455566,535.035156 1042.242798,534.642273 1044.029907,534.249451 
	C1054.907837,532.642700 1064.895142,528.516479 1074.840332,523.247559 
	C1083.218140,519.733093 1090.448975,515.435303 1093.971802,506.449036 
z"/>
<path fill="#71C8C7" opacity="1.000000" stroke="none" 
	d="
M1065.156494,611.361877 
	C1067.734497,607.228577 1070.483398,603.459900 1073.924316,599.578491 
	C1078.834229,598.392029 1083.003052,596.881775 1087.287598,596.398376 
	C1090.123291,596.078491 1093.124878,597.231323 1096.052246,597.724854 
	C1102.084839,604.462769 1108.330811,611.023987 1114.094604,617.984558 
	C1120.869507,626.166199 1127.106934,634.790649 1133.793091,643.048401 
	C1142.467163,653.761108 1152.020630,664.070679 1154.763428,678.103149 
	C1156.169678,685.297485 1156.880127,692.999451 1155.904541,700.200928 
	C1154.435181,711.045105 1151.145630,721.652832 1143.638184,730.226562 
	C1133.546387,741.751526 1121.441528,749.371338 1106.014893,752.553772 
	C1088.568237,756.152832 1073.556152,751.029114 1060.101196,741.381958 
	C1052.290283,735.781555 1046.208740,727.621155 1039.843628,720.189026 
	C1031.534790,710.487305 1023.686401,700.389526 1015.701050,690.413330 
	C1012.690796,686.652527 1009.851440,682.755005 1006.980225,678.250610 
	C1012.863708,674.126587 1006.394531,666.327698 1012.219788,662.868591 
	C1011.876587,662.319336 1011.598145,661.714478 1011.180542,661.229248 
	C1005.419983,654.535828 1006.521057,645.996399 1008.235229,639.133545 
	C1009.784058,632.933044 1010.078552,627.976257 1007.491821,622.524475 
	C1006.195435,619.792175 1006.432617,617.983032 1009.996582,617.955078 
	C1014.961731,623.965454 1019.930603,629.972717 1024.891235,635.986816 
	C1036.615356,650.200928 1048.346680,664.408997 1060.053101,678.637512 
	C1067.410522,687.580078 1074.630859,696.637451 1082.094604,705.489807 
	C1088.041138,712.542603 1101.196777,713.933533 1107.817383,708.468140 
	C1116.511719,701.290833 1118.275513,689.839661 1111.630371,681.368713 
	C1102.002197,669.095032 1092.079590,657.052734 1082.366699,644.844727 
	C1077.614990,638.872437 1072.350464,633.142761 1068.658203,626.552368 
	C1066.285645,622.317566 1066.353394,616.715637 1065.156494,611.361877 
z"/>
<path fill="#66BBBD" opacity="1.000000" stroke="none" 
	d="
M1009.820068,617.676025 
	C1006.432617,617.983032 1006.195435,619.792175 1007.491821,622.524475 
	C1010.078552,627.976257 1009.784058,632.933044 1008.235229,639.133545 
	C1006.521057,645.996399 1005.419983,654.535828 1011.180542,661.229248 
	C1011.598145,661.714478 1011.876587,662.319336 1012.219788,662.868591 
	C1006.394531,666.327698 1012.863708,674.126587 1006.877380,677.924927 
	C1005.172974,676.450806 1003.617493,674.633179 1002.301636,672.511230 
	C1003.579163,671.625793 1004.617004,671.044617 1005.654846,670.463440 
	C1005.175537,669.871826 1004.696167,669.280212 1004.216797,668.688599 
	C1003.416504,669.830017 1002.616272,670.971436 1001.815979,672.112854 
	C996.939636,666.086670 992.055847,660.066467 987.192017,654.030273 
	C985.958862,652.499878 984.788879,650.918579 983.316040,649.161865 
	C983.054077,646.915771 983.211487,645.174683 986.118286,646.237244 
	C989.263977,647.386963 990.615051,645.129517 989.738831,642.941772 
	C987.205383,636.616333 991.696045,630.961548 990.808899,624.804993 
	C990.115540,619.993774 989.416443,614.873413 993.904297,610.968445 
	C994.291687,610.631287 993.539490,608.582458 992.911804,607.583008 
	C992.132751,606.342468 990.609009,605.520569 989.997559,604.236633 
	C989.290894,602.752991 989.227295,600.962952 988.884521,599.305969 
	C990.318115,599.659973 992.203979,599.552979 993.111328,600.443298 
	C998.744141,605.970093 1004.157410,611.720642 1009.820068,617.676025 
z"/>
<path fill="#66BBBD" opacity="1.000000" stroke="none" 
	d="
M1012.480469,535.905273 
	C1013.332153,541.446167 1014.400208,546.810486 1011.612183,552.351807 
	C1010.330322,554.899536 1011.650757,558.786255 1011.889221,562.058594 
	C1012.043640,564.177490 1012.904175,566.384460 1012.523621,568.375183 
	C1011.582825,573.296387 1014.192261,574.795959 1018.235596,574.909119 
	C1024.866821,575.094727 1031.505249,575.025208 1038.617676,575.095215 
	C1037.309204,575.750488 1035.534668,576.872864 1033.736694,576.911560 
	C1025.429077,577.090393 1017.097351,577.285645 1008.810486,576.824219 
	C1004.413940,576.579407 999.945740,575.395569 995.806580,573.844116 
	C994.139221,573.219055 992.298096,570.514709 992.225464,568.689453 
	C992.057190,564.457642 992.867126,560.178711 993.383240,555.931396 
	C993.643127,553.792725 995.071411,551.243774 994.328979,549.641235 
	C992.264832,545.185608 993.299377,541.017700 994.102051,536.380615 
	C1000.041748,535.998718 1006.029968,535.943298 1012.480469,535.905273 
z"/>
<path fill="#66BBBD" opacity="1.000000" stroke="none" 
	d="
M987.589966,593.610107 
	C987.576233,593.129639 987.759155,592.727783 987.942139,592.325928 
	C988.240906,592.579102 988.539673,592.832275 988.838501,593.085388 
	C988.487854,593.286499 988.137268,593.487610 987.589966,593.610107 
z"/>
<path fill="#66BBBD" opacity="1.000000" stroke="none" 
	d="
M1037.890991,334.576904 
	C1035.539917,335.026215 1032.946167,335.180054 1031.302246,335.277527 
	C1030.802124,343.813477 1030.276123,351.786987 1029.901367,359.767578 
	C1029.780029,362.352081 1030.302856,364.978088 1030.065186,367.541962 
	C1029.898560,369.340210 1028.942749,371.065338 1028.230347,373.140381 
	C1030.152100,373.791809 1032.384644,374.548553 1034.824463,375.584961 
	C1021.927551,376.206390 1008.859863,376.061554 995.995239,373.409973 
	C996.542053,360.625122 997.068604,348.312592 997.606689,335.732819 
	C1000.385681,335.149078 1003.524292,334.489777 1006.916504,333.566284 
	C1015.779236,333.222839 1024.388550,333.081970 1032.997070,333.121124 
	C1034.549316,333.128174 1036.098022,333.875732 1037.890991,334.576904 
z"/>
<path fill="#66BBBD" opacity="1.000000" stroke="none" 
	d="
M1130.413574,527.019653 
	C1130.860474,526.164673 1131.599365,525.183289 1132.645508,524.103088 
	C1132.203735,524.967285 1131.454590,525.930176 1130.413574,527.019653 
z"/>
<path fill="#66BBBD" opacity="1.000000" stroke="none" 
	d="
M1125.316284,533.938232 
	C1125.506104,533.456177 1125.959595,532.845825 1126.678467,532.112427 
	C1126.489258,532.596313 1126.034546,533.203125 1125.316284,533.938232 
z"/>
<path fill="#57A5AC" opacity="1.000000" stroke="none" 
	d="
M1095.861938,597.449158 
	C1093.124878,597.231323 1090.123291,596.078491 1087.287598,596.398376 
	C1083.003052,596.881775 1078.834229,598.392029 1074.271240,599.457520 
	C1078.562012,593.137207 1087.698853,592.181030 1095.861938,597.449158 
z"/>
<path fill="#66BBBD" opacity="1.000000" stroke="none" 
	d="
M1043.637207,534.186340 
	C1042.242798,534.642273 1040.455566,535.035156 1038.361816,535.274536 
	C1039.785034,534.788452 1041.514893,534.455872 1043.637207,534.186340 
z"/>
<path fill="#66BBBD" opacity="1.000000" stroke="none" 
	d="
M1038.392334,375.929108 
	C1039.539062,375.736115 1041.104004,375.574768 1042.832886,375.693298 
	C1041.601440,375.969086 1040.205933,375.964935 1038.392334,375.929108 
z"/>
<path fill="#66BBBD" opacity="1.000000" stroke="none" 
	d="
M1101.712158,496.212219 
	C1100.533081,498.587799 1099.073975,501.144653 1097.306274,503.831451 
	C1098.475830,501.438751 1099.953979,498.916138 1101.712158,496.212219 
z"/>
<path fill="#71C8C7" opacity="1.000000" stroke="none" 
	d="
M1001.844604,672.109253 
	C1002.616272,670.971436 1003.416504,669.830017 1004.216797,668.688599 
	C1004.696167,669.280212 1005.175537,669.871826 1005.654846,670.463440 
	C1004.617004,671.044617 1003.579163,671.625793 1002.209839,672.184570 
	C1001.878418,672.162292 1001.873169,672.105652 1001.844604,672.109253 
z"/>
</svg>